<svg width="361" height="232" viewBox="0 0 361 232" fill="none" xmlns="http://www.w3.org/2000/svg">
<g filter="url(#filter0_d)">
<rect x="23" y="19" width="315" height="186" rx="25" fill="#FF5954"/>
<path d="M127.739 72.829C128.665 95.1455 128.426 107.245 120.3 116.536C112.174 125.827 89.3797 123.527 89.3797 123.527C89.3797 123.527 87.139 156.389 55.2626 157.793C23.416 159.197 18.8153 116.865 43.7906 106.02C67.5411 95.6832 75.0995 92.6958 83.3151 67.093C90.8137 43.7309 114.236 48.1822 119.822 57.9513C125.439 67.7204 127.739 72.829 127.739 72.829Z" fill="#303C60"/>
<path d="M117.283 186.772C117.283 186.772 132.31 189.729 133.087 189.55C133.864 189.401 150.295 182.111 151.998 183.187C153.701 184.262 163.619 188.445 165.8 189.401C167.981 190.327 164.545 190.656 162.842 190.656C161.139 190.656 151.37 186.622 150.295 187.399C149.219 188.176 158.809 189.729 158.809 190.357C158.809 190.984 133.087 196.87 131.534 196.87C129.98 196.87 118.06 195.794 118.06 195.794L117.283 186.772Z" fill="#FFB487"/>
<path d="M104.793 104.646C112.889 106.229 117.669 114.803 119.223 122.302C120.776 129.801 104.793 104.646 104.793 104.646Z" fill="#2657CE"/>
<path d="M91.2273 98.8801C91.2273 98.8801 75.6327 109.336 67.2677 114.475C58.9027 119.583 70.2851 174.702 73.0933 195.167C75.8717 215.631 124.269 197.019 124.269 197.019C124.269 197.019 121.013 179.811 125.195 152.147C128.183 132.31 117.218 119.912 110.945 111.308C95.0812 89.5591 91.2273 98.8801 91.2273 98.8801Z" fill="#2657CE"/>
<path d="M75.902 114.684C93.7971 136.552 99.8617 140.645 95.4402 155.373C91.9448 166.994 90.7797 171.177 90.0926 175.15C89.4054 179.094 123.343 172.581 123.343 172.581L123.104 185.368C123.104 185.368 96.3663 198.154 83.3409 200.723C70.3154 203.292 62.1895 200.245 62.1895 200.245L75.902 114.684Z" fill="#1345BF"/>
<path d="M96.9666 76.8623L88.9004 100.732C88.9004 100.732 97.7433 124.692 105.182 119.344C107.722 117.522 104.256 103.063 104.256 103.063L109.693 83.6738L96.9666 76.8623Z" fill="#FFD2B2"/>
<path d="M71.2422 113.757C60.0989 114.982 59.1429 130.039 54.0343 155.164C48.9257 180.289 50.4493 196.869 52.8692 200.036C58.6948 207.714 124.031 180.976 132.157 181.185C137.774 181.334 133.083 171.894 133.083 171.894L70.7642 181.424C70.7642 181.424 79.6072 152.356 79.6072 137.478C79.6072 122.6 75.4247 113.309 71.2422 113.757Z" fill="#FFD2B2"/>
<path d="M129.141 172.372C135.654 170.759 145.184 167.025 147.036 168.638C148.888 170.251 156.566 181.902 159.135 185.159C161.704 188.415 157.97 185.846 155.192 183.306C152.413 180.737 150.083 179.363 150.083 179.363C150.083 179.363 146.588 182.619 143.331 184.471C140.075 186.324 138.91 182.619 133.323 181.693C127.737 180.767 113.785 185.637 113.785 185.637L129.141 172.372Z" fill="#FFD2B2"/>
<path d="M72.4696 111.906C65.6581 112.204 60.3703 117.94 58.518 126.783C56.6658 135.626 51.2286 163.679 51.2286 163.679C51.2286 163.679 50.1531 164.455 61.4757 166.457C72.7982 168.459 82.0893 166.158 82.0893 166.158C82.0893 166.158 84.4196 150.175 83.7922 139.181C83.1648 128.187 80.6852 117.791 76.6521 114.206C72.6489 110.651 72.4696 111.906 72.4696 111.906Z" fill="#2657CE"/>
<path d="M104.254 103.063L109.692 83.6738L96.9649 76.8623L95.023 82.5983C94.6048 101.838 99.5341 108.291 102.85 110.651C103.896 111.398 104.792 110.83 105.539 109.605C105.001 106.14 104.254 103.063 104.254 103.063Z" fill="#FFB487"/>
<path d="M130.066 79.1029C130.066 89.4695 128.841 102.196 119.819 101.897C105.867 101.419 97.084 90.5749 97.084 80.2083C97.084 69.8417 104.373 61.417 113.366 61.417C122.388 61.4469 130.066 68.7363 130.066 79.1029Z" fill="#FFD2B2"/>
<path d="M234.211 196.69H181.9L203.41 149.368C204.038 147.994 205.412 147.098 206.936 147.098H254.407C255.512 147.098 256.229 148.233 255.781 149.219L234.211 196.69Z" fill="#D9D8D8"/>
<path d="M234.093 196.691H137.598C137.598 193.315 140.316 190.596 143.692 190.596H234.093V196.691Z" fill="#D9D8D8"/>
<path d="M254.405 147.098H212.58C211.056 147.098 209.682 147.994 209.055 149.368L187.545 196.69H234.209L255.779 149.219C256.227 148.233 255.51 147.098 254.405 147.098Z" fill="#E6E6E6"/>
<path d="M114.742 57.8319C124.63 57.1448 130.486 66.167 132.189 74.0838C133.414 79.7899 132.816 80.8953 132.816 80.8953C132.816 80.8953 131.741 82.4488 123.973 82.8969C116.236 83.3749 115.28 83.1956 115.28 83.1956L114.802 74.2033L112.471 82.8969C112.471 82.8969 111.217 84.5998 106.437 82.2695C101.627 79.9393 99.4459 72.2017 99.4459 72.2017C99.4459 72.2017 98.3704 67.0931 102.075 63.6874C105.809 60.2816 114.742 57.8319 114.742 57.8319Z" fill="#303C60"/>
<path d="M107.362 81.1641C106.406 87.4378 101.417 91.8891 96.1891 91.0825C90.961 90.3058 87.4955 84.5698 88.4515 78.2961C89.4075 72.0224 94.3966 67.571 99.6247 68.3776C104.853 69.1544 108.318 74.8903 107.362 81.1641Z" fill="#D54A41"/>
<path d="M103.598 80.9848C102.732 86.7806 98.6094 90.9929 94.4269 90.3655C90.2444 89.7382 87.5557 84.5101 88.4221 78.7143C89.2884 72.9186 93.4111 68.7063 97.5936 69.3336C101.776 69.961 104.465 75.1891 103.598 80.9848Z" fill="#F39892"/>
<path d="M97.1753 79.7003C96.6974 82.8969 94.9646 85.2869 93.2916 85.018C91.6186 84.779 90.6626 81.9708 91.1406 78.7742C91.6186 75.5775 93.3514 73.1876 95.0244 73.4564C96.7272 73.7253 97.6832 76.5037 97.1753 79.7003Z" fill="#F2E5DE"/>
<path d="M96.9395 68.527C101.48 51.6775 117.135 54.1273 121.078 56.4874C124.424 58.4591 124.872 61.2674 124.872 61.2674C124.872 61.2674 120.57 57.772 113.251 59.0566C106.29 60.2815 102.168 64.3743 101.57 68.9153C101.301 71.1858 96.9395 68.527 96.9395 68.527Z" fill="#D54A41"/>
<path d="M27.3585 122.959H27.3286C27.1195 122.929 27 122.78 27 122.571C27.4182 118.299 29.5394 113.937 33.0048 110.232C36.9185 106.05 42.5051 102.764 49.1074 100.702C63.8656 96.1314 76.7416 90.3357 84.8377 65.4201C84.8975 65.2408 85.1066 65.1213 85.2859 65.1811C85.4651 65.2408 85.5846 65.4499 85.5249 65.6292C81.8204 77.0713 76.7416 85.4064 70.0497 91.1125C64.1344 96.1314 57.5022 98.85 49.3165 101.389C42.8038 103.391 37.3367 106.618 33.5127 110.71C30.1667 114.295 28.1054 118.538 27.717 122.63C27.717 122.81 27.5378 122.959 27.3585 122.959Z" fill="#303C60"/>
<path d="M34.0203 105.751C33.9008 105.751 33.8112 105.691 33.7515 105.602C33.632 105.452 33.6618 105.213 33.8112 105.094C33.871 105.034 40.1746 100.224 49.3163 98.1929C66.8229 94.339 78.5936 83.7932 83.3139 67.7504C83.3736 67.5711 83.5827 67.4516 83.762 67.5114C83.9412 67.5711 84.0607 67.7803 84.001 67.9595C81.0732 77.878 75.5763 85.7052 67.6594 91.232C62.5508 94.7871 56.4265 97.3564 49.4656 98.9099C40.5032 100.882 34.3191 105.632 34.2593 105.662C34.1996 105.721 34.11 105.751 34.0203 105.751Z" fill="#303C60"/>
<path d="M258.524 100.613H211.292C210.844 100.613 210.635 100.254 210.784 99.8061L220.374 73.4863C220.523 73.0382 221.031 72.6797 221.479 72.6797H268.712C269.16 72.6797 269.369 73.0382 269.219 73.4863L259.63 99.8061C259.45 100.254 258.972 100.613 258.524 100.613Z" fill="#1345BF"/>
<path d="M257.959 99.3579H212.759C212.34 99.3579 212.131 99.0293 212.281 98.6111L221.004 74.6514C221.153 74.2332 221.601 73.9045 222.02 73.9045H267.22C267.639 73.9045 267.848 74.2332 267.698 74.6514L258.975 98.6111C258.826 99.0293 258.377 99.3579 257.959 99.3579Z" fill="white"/>
<path d="M257.152 97.8046H214.73C214.252 97.8046 214.013 97.4163 214.192 96.9682L221.691 76.2947C221.87 75.8167 222.378 75.4583 222.826 75.4583H265.248C265.726 75.4583 265.965 75.8466 265.786 76.2947L258.258 96.9682C258.108 97.4461 257.6 97.8046 257.152 97.8046Z" fill="#2657CE"/>
<path d="M244.152 91.6018C248.092 88.3142 249.426 83.4205 247.132 80.6715C244.838 77.9225 239.784 78.3592 235.845 81.6468C231.905 84.9344 230.571 89.8281 232.864 92.5771C235.158 95.3262 240.212 94.8895 244.152 91.6018Z" fill="white"/>
<path d="M246.667 86.6313C245.323 90.3059 241.26 93.2934 237.555 93.2934C233.881 93.2934 231.969 90.3059 233.313 86.6313C234.658 82.9567 238.721 79.9692 242.425 79.9692C246.1 79.9692 248.012 82.9567 246.667 86.6313Z" fill="#2657CE"/>
<path d="M243.411 86.2728L240.454 87.677L237.496 89.1109L238.542 86.2728L239.557 83.4646L241.499 84.8687L243.411 86.2728Z" fill="white"/>
<path d="M187.036 70.9771H183.302C182.525 70.9771 181.868 70.6484 181.479 70.1107C181.061 69.5132 181.001 68.7364 181.3 67.9298L182.644 64.1955C183.182 62.7615 184.706 61.6262 186.17 61.6262H189.904C190.681 61.6262 191.338 61.9548 191.726 62.4926C192.145 63.0901 192.204 63.8668 191.906 64.6735L190.561 68.4078C190.023 69.8717 188.5 70.9771 187.036 70.9771ZM186.199 63.0901C185.363 63.0901 184.347 63.837 184.019 64.7033L182.674 68.4377C182.555 68.7962 182.555 69.0949 182.704 69.3041C182.853 69.5132 183.122 69.5729 183.331 69.5729H187.036C187.902 69.5729 188.888 68.8261 189.217 67.9597L190.561 64.2253C190.681 63.8668 190.681 63.5681 190.531 63.359C190.382 63.1498 190.113 63.0901 189.904 63.0901H186.199Z" fill="#FFC341"/>
<path d="M181.27 86.8106H177.536C176.759 86.8106 176.102 86.4819 175.714 85.9442C175.295 85.3467 175.236 84.5699 175.534 83.7633L176.879 80.029C177.416 78.595 178.94 77.4597 180.404 77.4597H184.138C184.915 77.4597 185.572 77.7883 185.961 78.3261C186.379 78.9236 186.439 79.7003 186.14 80.507L184.796 84.2413C184.288 85.6753 182.734 86.8106 181.27 86.8106ZM180.434 78.8937C179.597 78.8937 178.582 79.6406 178.253 80.507L176.909 84.2413C176.789 84.5998 176.789 84.8986 176.938 85.1077C177.088 85.3168 177.357 85.3766 177.566 85.3766H181.3C182.167 85.3766 183.152 84.6297 183.481 83.7633L184.825 80.029C184.945 79.6705 184.945 79.3717 184.796 79.1626C184.646 78.9535 184.377 78.8937 184.168 78.8937H180.434Z" fill="#FFC341"/>
<path d="M175.536 102.614H171.802C171.025 102.614 170.368 102.286 169.979 101.748C169.561 101.151 169.501 100.374 169.8 99.5673L171.144 95.8329C171.682 94.3989 173.206 93.2637 174.67 93.2637H178.404C179.181 93.2637 179.838 93.5923 180.226 94.1301C180.645 94.7275 180.704 95.5043 180.406 96.3109L179.061 100.045C178.523 101.479 176.97 102.614 175.536 102.614ZM174.67 94.6977C173.803 94.6977 172.817 95.4445 172.489 96.3109L171.144 100.045C171.025 100.404 171.025 100.703 171.174 100.912C171.324 101.121 171.592 101.181 171.802 101.181H175.536C176.402 101.181 177.388 100.434 177.717 99.5673L179.061 95.8329C179.181 95.4744 179.181 95.1757 179.031 94.9665C178.882 94.7574 178.613 94.6977 178.404 94.6977H174.67Z" fill="#2657CE"/>
<path d="M217.656 67.9597H197.192C196.804 67.9597 196.594 67.6311 196.744 67.2726C196.893 66.8842 197.311 66.5854 197.7 66.5854H218.164C218.552 66.5854 218.762 66.9141 218.612 67.2726C218.463 67.6311 218.015 67.9597 217.656 67.9597Z" fill="#2657CE"/>
<path d="M216.642 70.738H196.178C195.79 70.738 195.581 70.4094 195.73 70.0509C195.879 69.6625 196.298 69.3638 196.686 69.3638H217.15C217.539 69.3638 217.748 69.6924 217.598 70.0509C217.449 70.4393 217.001 70.738 216.642 70.738Z" fill="#2657CE"/>
<path d="M212.308 82.5984H191.844C191.456 82.5984 191.247 82.2697 191.396 81.9112C191.545 81.5229 191.964 81.2241 192.352 81.2241H212.816C213.205 81.2241 213.414 81.5527 213.264 81.9112C213.115 82.2996 212.697 82.5984 212.308 82.5984Z" fill="#2657CE"/>
<path d="M211.293 85.3767H190.829C190.44 85.3767 190.231 85.0481 190.38 84.6896C190.53 84.3012 190.948 84.0024 191.336 84.0024H211.801C212.189 84.0024 212.398 84.3311 212.249 84.6896C212.099 85.0779 211.681 85.3767 211.293 85.3767Z" fill="#2657CE"/>
<path d="M206.394 98.8801H185.93C185.542 98.8801 185.333 98.5515 185.482 98.193C185.631 97.8046 186.05 97.5059 186.438 97.5059H206.902C207.291 97.5059 207.5 97.8345 207.35 98.193C207.201 98.5515 206.783 98.8801 206.394 98.8801Z" fill="#2657CE"/>
<path d="M205.379 101.658H184.915C184.526 101.658 184.317 101.33 184.466 100.971C184.616 100.583 185.034 100.284 185.422 100.284H205.887C206.275 100.284 206.484 100.613 206.335 100.971C206.185 101.36 205.767 101.658 205.379 101.658Z" fill="#2657CE"/>
<path d="M186.169 68.8855C186.109 68.8855 186.049 68.8855 185.99 68.8556C185.781 68.7958 185.601 68.6465 185.512 68.4373L184.108 64.942C183.958 64.5835 184.137 64.1652 184.496 64.0159C184.854 63.8665 185.273 64.0457 185.422 64.4042L186.468 67.0033L194.773 60.6101C195.072 60.3711 195.55 60.4309 195.789 60.7296C196.028 61.0284 195.968 61.5064 195.669 61.7454L186.617 68.7361C186.468 68.8556 186.318 68.8855 186.169 68.8855Z" fill="#FFC341"/>
<path d="M180.403 84.7194C180.343 84.7194 180.284 84.7194 180.224 84.6896C180.015 84.6298 179.836 84.4804 179.746 84.2713L178.342 80.776C178.193 80.4175 178.372 79.9992 178.73 79.8498C179.089 79.7005 179.507 79.8797 179.656 80.2382L180.702 82.8373L189.007 76.4441C189.306 76.2051 189.784 76.2649 190.023 76.5636C190.262 76.8624 190.202 77.3403 189.903 77.5793L180.851 84.5701C180.732 84.6597 180.553 84.7194 180.403 84.7194Z" fill="#FFC341"/>
<path d="M316.404 47.7479C316.003 48.8518 314.954 49.5866 313.779 49.5866H241.123C239.184 49.5866 237.835 47.6604 238.498 45.8387C238.899 44.7348 239.948 44 241.123 44H313.779C315.717 44 317.067 45.9261 316.404 47.7479Z" fill="#2657CE"/>
<path d="M313.357 56.1129C312.956 57.2168 311.907 57.9516 310.732 57.9516H238.076C236.137 57.9516 234.788 56.0254 235.451 54.2037C235.852 53.0998 236.901 52.365 238.076 52.365H310.732C312.671 52.365 314.02 54.2911 313.357 56.1129Z" fill="#2657CE"/>
<path d="M225.545 124.871H167.827C167.08 124.871 166.691 124.244 166.96 123.497C167.229 122.75 168.066 122.123 168.842 122.123H226.561C227.307 122.123 227.696 122.75 227.427 123.497C227.158 124.244 226.322 124.871 225.545 124.871Z" fill="#1345BF"/>
<path d="M223.334 130.966H165.616C164.869 130.966 164.48 130.338 164.749 129.591C165.018 128.844 165.855 128.217 166.631 128.217H224.35C225.097 128.217 225.485 128.844 225.216 129.591C224.917 130.338 224.081 130.966 223.334 130.966Z" fill="#1345BF"/>
<path d="M277.381 182.5C277.381 181.544 289.032 149.279 281.145 128.546C275.619 114.027 274.752 96.5796 274.752 96.5796C274.752 96.5796 263.997 111.995 271.257 135.536C275.738 150.026 277.561 154.029 277.949 158.301C278.337 162.573 276.216 183.874 276.216 183.874L277.381 182.5Z" fill="#8EEEFD"/>
<path d="M276.217 184.232C276.157 184.232 276.127 184.232 276.068 184.202C275.918 184.143 275.829 183.993 275.859 183.844C275.889 183.635 277.98 162.513 277.591 158.331C277.352 155.552 276.486 152.923 274.604 147.158C273.648 144.2 272.453 140.525 270.929 135.626C267.165 123.377 268.3 113.369 269.943 107.125C271.706 100.344 274.365 96.5197 274.454 96.3704C274.544 96.2509 274.694 96.1911 274.843 96.221C274.992 96.2509 275.082 96.4002 275.112 96.5496C275.112 96.7289 276.038 114.086 281.475 128.396C284.433 136.164 285.03 146.381 283.238 158.809C281.804 168.727 279.294 177.212 278.189 180.827C277.95 181.663 277.741 182.35 277.711 182.5C277.711 182.589 277.681 182.649 277.621 182.709L276.456 184.053C276.426 184.173 276.307 184.232 276.217 184.232ZM274.484 97.7147C273.588 99.2384 271.885 102.584 270.631 107.334C269.017 113.489 267.882 123.347 271.616 135.417C273.14 140.316 274.335 143.991 275.291 146.919C277.203 152.744 278.069 155.373 278.308 158.241C278.637 161.976 277.113 178.257 276.665 182.739L277.024 182.32C277.054 182.111 277.203 181.693 277.502 180.617C284.224 158.092 285.359 140.615 280.788 128.635C276.128 116.357 274.783 101.808 274.484 97.7147Z" fill="#8EEEFD"/>
<path d="M279.889 185.786C278.156 149.936 286.67 130.368 304.117 114.863C321.564 99.3579 322.341 95.2949 322.341 95.2949C322.341 95.2949 319.622 125.528 309.554 135.984C299.486 146.441 284.758 154.208 282.607 159.615C280.486 165.053 281.263 183.246 281.263 183.246L279.918 186.533V185.786H279.889Z" fill="#2657CE"/>
<path d="M277.766 188.893C277.586 188.325 281.44 155.373 295.601 153.431C309.732 151.489 313.048 154.776 322.727 153.252C329.628 152.147 334.946 149.966 334.946 149.966C334.946 149.966 331.272 159.317 318.664 163.141C309.762 165.859 298.14 161.408 291.359 162.573C284.577 163.738 281.082 178.257 281.082 178.257L279.917 185.816L277.766 188.893Z" fill="#FFC341"/>
<path d="M279.709 184.023C279.53 184.023 279.381 183.874 279.351 183.695C279.321 183.456 277.319 160.332 287.148 142.617C292.227 133.475 297.754 128.157 303.131 123.019C308.12 118.239 312.841 113.728 316.426 106.588C316.515 106.408 316.724 106.349 316.904 106.438C317.083 106.528 317.143 106.737 317.053 106.916C313.408 114.176 308.658 118.717 303.639 123.556C298.322 128.635 292.825 133.923 287.806 142.975C278.096 160.482 280.068 183.426 280.098 183.665C280.128 183.874 279.978 184.023 279.769 184.053C279.709 184.023 279.709 184.023 279.709 184.023Z" fill="white"/>
<path d="M278.725 179.363C278.695 179.363 278.665 179.363 278.635 179.363C278.456 179.303 278.337 179.094 278.396 178.915C282.101 166.128 286.373 158.659 291.78 155.433C296.62 152.535 301.639 153.431 306.957 154.357C308.271 154.596 309.616 154.835 310.93 154.985C322.462 156.508 328.108 153.7 328.168 153.67C328.347 153.581 328.556 153.64 328.646 153.82C328.736 153.999 328.676 154.208 328.497 154.298C328.258 154.417 322.641 157.225 310.84 155.702C309.496 155.523 308.152 155.284 306.837 155.045C301.669 154.118 296.769 153.252 292.139 156.03C286.881 159.167 282.728 166.487 279.054 179.094C279.024 179.273 278.874 179.363 278.725 179.363Z" fill="white"/>
<path d="M297.247 129.681C297.128 129.681 297.038 129.621 296.949 129.531C296.829 129.382 296.859 129.143 297.008 129.024C297.068 128.964 303.969 123.706 313.529 121.883C313.738 121.854 313.918 121.973 313.948 122.182C313.977 122.391 313.858 122.571 313.649 122.6C304.238 124.393 297.486 129.561 297.427 129.591C297.397 129.651 297.307 129.681 297.247 129.681Z" fill="white"/>
<path d="M286.283 145.276C286.223 145.276 286.163 145.246 286.104 145.216C285.924 145.126 285.865 144.887 285.984 144.738C291.033 136.224 296.948 134.073 309.824 130.039C310.003 129.98 310.213 130.099 310.272 130.278C310.332 130.458 310.213 130.667 310.033 130.727C297.336 134.7 291.511 136.821 286.582 145.096C286.522 145.216 286.402 145.276 286.283 145.276Z" fill="white"/>
<path d="M283.147 197.706H274.483C271.436 197.706 268.807 195.525 268.239 192.537L265.461 177.958H292.199L289.421 192.537C288.823 195.555 286.224 197.706 283.147 197.706Z" fill="#F39892"/>
<path d="M291.511 181.663H266.326C265.938 181.663 265.609 181.334 265.609 180.946C265.609 180.558 265.938 180.229 266.326 180.229H291.511C291.899 180.229 292.228 180.558 292.228 180.946C292.228 181.334 291.899 181.663 291.511 181.663Z" fill="#D54A41"/>
</g>
<defs>
<filter id="filter0_d" x="0" y="0" width="361" height="232" filterUnits="userSpaceOnUse" color-interpolation-filters="sRGB">
<feFlood flood-opacity="0" result="BackgroundImageFix"/>
<feColorMatrix in="SourceAlpha" type="matrix" values="0 0 0 0 0 0 0 0 0 0 0 0 0 0 0 0 0 0 127 0"/>
<feOffset dy="4"/>
<feGaussianBlur stdDeviation="11.5"/>
<feColorMatrix type="matrix" values="0 0 0 0 1 0 0 0 0 0.34902 0 0 0 0 0.329412 0 0 0 0.38 0"/>
<feBlend mode="normal" in2="BackgroundImageFix" result="effect1_dropShadow"/>
<feBlend mode="normal" in="SourceGraphic" in2="effect1_dropShadow" result="shape"/>
</filter>
</defs>
</svg>
