<svg xmlns="http://www.w3.org/2000/svg" xmlns:xlink="http://www.w3.org/1999/xlink" width="169.704" height="169.704" viewBox="0 0 169.704 169.704">
  <defs>
    <filter id="Эллипс_22" x="0" y="0" width="169.704" height="169.704" filterUnits="userSpaceOnUse">
      <feOffset dy="15" input="SourceAlpha"/>
      <feGaussianBlur stdDeviation="17.5" result="blur"/>
      <feFlood flood-color="#d0d4db"/>
      <feComposite operator="in" in2="blur"/>
      <feComposite in="SourceGraphic"/>
    </filter>
  </defs>
  <g id="Сгруппировать_58" data-name="Сгруппировать 58" transform="translate(-1137.5 -1756.5)">
    <g transform="matrix(1, 0, 0, 1, 1137.5, 1756.5)" filter="url(#Эллипс_22)">
      <circle id="Эллипс_22-2" data-name="Эллипс 22" cx="32.352" cy="32.352" r="32.352" transform="translate(52.5 37.5)" fill="#fff"/>
    </g>
    <g id="Сгруппировать_57" data-name="Сгруппировать 57" transform="translate(1204.59 1811.128)">
      <path id="chat-bubble-dots" d="M12.883,19.036,7.73,24.189V19.036H2.577A2.577,2.577,0,0,1,0,16.46V3.577A2.584,2.584,0,0,1,2.577,1H23.189a2.577,2.577,0,0,1,2.577,2.577V16.46a2.577,2.577,0,0,1-2.577,2.577ZM6.442,8.73v2.577H9.018V8.73Zm5.153,0v2.577h2.577V8.73Zm5.153,0v2.577h2.577V8.73Z" transform="translate(0 -1)" fill="#c2cacf"/>
      <path id="chat-bubble-dots-2" data-name="chat-bubble-dots" d="M12.883,19.036,7.73,24.189V19.036H2.577A2.577,2.577,0,0,1,0,16.46V3.577A2.584,2.584,0,0,1,2.577,1H23.189a2.577,2.577,0,0,1,2.577,2.577V16.46a2.577,2.577,0,0,1-2.577,2.577ZM6.442,8.73v2.577H9.018V8.73Zm5.153,0v2.577h2.577V8.73Zm5.153,0v2.577h2.577V8.73Z" transform="translate(9.461 6.096)" fill="#c2cacf" opacity="0.33"/>
    </g>
  </g>
</svg>
