<svg xmlns="http://www.w3.org/2000/svg" width="33.884" height="36.833" viewBox="0 0 33.884 36.833">
  <path id="store-front" d="M32.476,18.177V36.833H3.01V18.177a7.827,7.827,0,0,0,5.525-.7v8.306H26.951V17.5a7.845,7.845,0,0,0,5.525.681ZM4.852,0h7.367L10.984,11.105a6.317,6.317,0,0,1-6.133,5.47c-3.057,0-4.751-2.339-3.775-5.249ZM14.06,0h7.367l1.289,11.6a4.361,4.361,0,0,1-4.457,4.972H17.227A4.383,4.383,0,0,1,12.771,11.6Zm9.208,0h7.367L34.41,11.326c.976,2.91-.737,5.249-3.775,5.249a6.3,6.3,0,0,1-6.133-5.47Z" transform="translate(-0.8)" fill="#fff"/>
</svg>
