<svg xmlns="http://www.w3.org/2000/svg" width="36.069" height="37.663" viewBox="0 0 36.069 37.663">
  <path id="Контур_6" data-name="Контур 6" d="M35.862,21.8l.208-3.621-4.915-.362a13.983,13.983,0,0,0-.762-3.766l4.431-2.39L33.231,8.474l-4.5,2.39A15.64,15.64,0,0,0,26.238,8.04L28.8,3.621,25.823,1.738,23.262,6.156a11.716,11.716,0,0,0-3.531-1.014V0H16.269V5.215a12.258,12.258,0,0,0-6.092,2.607L6.369,4.273,4.085,6.953l3.6,3.332a14.465,14.465,0,0,0-2.146,4.273L.623,13.617,0,17.166l4.915.942v.724a15.3,15.3,0,0,0,.346,3.114L.623,23.757l1.246,3.4L6.438,25.35a13.639,13.639,0,0,0,2.146,3.114L5.538,32.52l2.7,2.245,3.046-4.128a11.016,11.016,0,0,0,3.392,1.449l-.623,5.142,3.462.435.623-5.142a11.745,11.745,0,0,0,3.6-.579l2.008,4.708L26.931,35.2l-2.008-4.708a13.327,13.327,0,0,0,2.838-2.463L31.846,31l1.938-2.97L29.7,25.06a12.994,12.994,0,0,0,1.177-3.621ZM18,8.691a9.953,9.953,0,0,1,9.692,10.14A9.953,9.953,0,0,1,18,28.971a9.953,9.953,0,0,1-9.692-10.14A9.953,9.953,0,0,1,18,8.691Z" fill="#156eec"/>
</svg>
