<svg xmlns="http://www.w3.org/2000/svg" width="27.728" height="27.728" viewBox="0 0 27.728 27.728">
  <path id="servers" d="M0,2.773A2.781,2.781,0,0,1,2.773,0H24.955a2.773,2.773,0,0,1,2.773,2.773V5.546a2.773,2.773,0,0,1-2.773,2.773H2.773A2.773,2.773,0,0,1,0,5.546Zm0,9.7A2.781,2.781,0,0,1,2.773,9.7H24.955a2.773,2.773,0,0,1,2.773,2.773V15.25a2.773,2.773,0,0,1-2.773,2.773H2.773A2.773,2.773,0,0,1,0,15.25Zm0,9.7A2.781,2.781,0,0,1,2.773,19.41H24.955a2.773,2.773,0,0,1,2.773,2.773v2.773a2.773,2.773,0,0,1-2.773,2.773H2.773A2.773,2.773,0,0,1,0,24.955ZM16.637,2.773V5.546H19.41V2.773Zm5.546,0V5.546h2.773V2.773Zm-5.546,9.7V15.25H19.41V12.478Zm5.546,0V15.25h2.773V12.478Zm-5.546,9.7v2.773H19.41V22.182Zm5.546,0v2.773h2.773V22.182Z" fill="#156eec"/>
</svg>
