<svg xmlns="http://www.w3.org/2000/svg" width="51.119" height="55.568" viewBox="0 0 51.119 55.568">
  <path id="store-front" d="M48.588,26.619V55.568H4.134V27.423a11.808,11.808,0,0,0,8.335-1.056V38.9H40.253v-12.5c2.559,1.35,5.525.912,8.335.224ZM6.912,0H18.026L16.164,16.754a9.53,9.53,0,0,1-9.252,8.252c-4.612,0-7.168-3.529-5.7-7.918ZM20.8,0H31.918l1.945,17.5a6.579,6.579,0,0,1-6.724,7.5H25.583a6.613,6.613,0,0,1-6.724-7.5ZM34.7,0H45.81l5.7,17.087c1.473,4.39-1.111,7.918-5.7,7.918a9.5,9.5,0,0,1-9.252-8.252Z" transform="translate(-0.8)" fill="#156eec"/>
</svg>
