<svg xmlns="http://www.w3.org/2000/svg" width="50.4" height="56" viewBox="0 0 50.4 56">
  <g id="Сгруппировать_15" data-name="Сгруппировать 15" transform="translate(-708 -2250)">
    <path id="play" d="M4,4l14.981,7.49L4,18.981Z" transform="translate(724 2272)" fill="#156eec"/>
    <path id="date-add" d="M40.2,5.6h5.6a5.6,5.6,0,0,1,5.6,5.6V50.4A5.6,5.6,0,0,1,45.8,56H6.6A5.6,5.6,0,0,1,1,50.4V11.2A5.616,5.616,0,0,1,6.6,5.6h5.6V0h5.6V5.6H34.6V0h5.6ZM6.6,16.8V50.4H45.8V16.8Z" transform="translate(707 2250)" fill="#156eec"/>
    <circle id="Эллипс_11" data-name="Эллипс 11" cx="1.504" cy="1.504" r="1.504" transform="translate(742.979 2269.991)" fill="#156eec"/>
    <circle id="Эллипс_12" data-name="Эллипс 12" cx="1.504" cy="1.504" r="1.504" transform="translate(746.991 2269.991)" fill="#156eec"/>
    <circle id="Эллипс_13" data-name="Эллипс 13" cx="1.504" cy="1.504" r="1.504" transform="translate(738.968 2269.991)" fill="#156eec"/>
  </g>
</svg>
